# xmcd
#
# Track frame offsets:
#	150
#	16160
#	31050
#	49131
#	63894
#	76251
#	93251
#	108311
#	126184
#	143260
#	157878
#	173873
#
# Disc length: 2476 seconds
#
# Revision: 1
# Processed by: cddbd v1.5.2PL0 Copyright (c) Steve Scherf et al.
# Submitted via: dBpowerAMP V4.0
#
DISCID=8209aa0c
DTITLE=Enrico Macias - La vie populaire
DYEAR=2006
DGENRE=variétés
TTITLE0=Une rime (3 arpèges, une mandoline)
TTITLE1=Serrements de coeurs
TTITLE2=La vie populaire
TTITLE3=Les crayons de couleurs
TTITLE4=Les hommes libres
TTITLE5=Sahara ça ira
TTITLE6=Quel temps fait-il ?
TTITLE7=Sur les flots gris and les flots bleus
TTITLE8=Il pleut des étoiles
TTITLE9=Je lance un baiser
TTITLE10=La mémoire
TTITLE11=Mon histoire, c'est ton histoire
EXTD=
EXTT0=
EXTT1=
EXTT2=
EXTT3=
EXTT4=
EXTT5=
EXTT6=
EXTT7=
EXTT8=
EXTT9=
EXTT10=
EXTT11=
PLAYORDER=
